<?xml version="1.0" encoding="UTF-8"?>
<svg width="2560px" height="1400px" viewBox="0 0 2560 1400" version="1.1" xmlns="http://www.w3.org/2000/svg" xmlns:xlink="http://www.w3.org/1999/xlink">
    <title>Slice 1</title>
    <g id="Page-1" stroke="none" stroke-width="1" fill="none" fill-rule="evenodd">
        <g id="hero-mask-right" fill-rule="nonzero">
            <g id="path-3-link" transform="translate(2363.000000, 0.000000)" fill="#000000">
                <path d="M25.528893,0 C57.429998,132.757785 197,377.560937 197,377.560937 C197,377.560937 119.791403,512.980591 67.099272,637.00114 L41.570379,637.00114 C94.26251,512.979994 171.471107,377.559603 171.471107,377.559603 C171.471107,377.559603 31.899772,132.757785 0,0 L0,0 L25.528893,0 Z" id="path-3"></path>
            </g>
            <g id="path-3-link" fill="#28CDD2">
                <path d="M2388.52889,0 C2420.43,132.757785 2560,377.560937 2560,377.560937 C2560,377.560937 2423,627.820312 2386.51953,752 C2387.94724,1184 2387.94724,1400 2386.51953,1400 C1857.60957,1400 1062.10306,1400 0,1400 C30.671875,1270.83984 0,318.50057 0,318.50057 C0,318.50057 31.899772,132.757785 0,0 L2388.52889,0 Z" id="path-3"></path>
            </g>
        </g>
    </g>
</svg>